#!OML:ASF H:\Pregnant\Project 1\Capture day 1\Session 1\femalepreg.ASF
:FULLY-SPECIFIED
:DEGREES
227
root 9.27287 14.3387 27.6511 84.8585 -77.9534 -66.993
lowerback -12.9752 -0.609725 -0.213725
upperback -6.24158 -1.08827 1.03883
thorax 0.753666 -0.648069 1.05304
lowerneck -23.3736 4.40332 5.36375
upperneck 19.5594 3.22542 3.61176
head 10.1478 2.31931 0.905357
rclavicle 3.19298e-015 9.54166e-015
rhumerus -34.8211 12.6338 -91.8753
rradius 31.2673
rwrist -3.4908
rhand -16.4339 -18.4739
rfingers 7.12502
rthumb 9.78156 -48.2268
lclavicle 3.19298e-015 9.54166e-015
lhumerus -32.7324 -20.9365 93.1199
lradius 39.3186
lwrist 38.8122
lhand -27.8607 -0.638861
lfingers 7.12502
lthumb -1.25138 29.3372
rfemur -18.266 13.8885 7.63069
rtibia 20.0072
rfoot -14.3966 -22.044
rtoes -28.7943
lfemur -25.6842 -2.78177 18.0983
ltibia 22.3532
lfoot -7.94344 12.7767
ltoes -37.9216
228
root 9.28971 14.3133 27.6512 83.4254 -77.2334 -65.5223
lowerback -12.5473 -0.600342 0.0381935
upperback -6.21599 -1.09618 1.12829
thorax 0.548583 -0.65213 1.00881
lowerneck -23.5922 4.32364 5.30051
upperneck 19.0561 3.16591 3.5329
head 10.0035 2.27119 0.873911
rclavicle -3.00662e-015 3.18055e-014
rhumerus -34.9883 14.2608 -92.5984
rradius 31.8845
rwrist -3.03603
rhand -15.8558 -17.8342
rfingers 7.12502
rthumb 10.3392 -47.56
lclavicle -3.00662e-015 3.18055e-014
lhumerus -32.7383 -21.4915 93.7046
lradius 39.8417
lwrist 38.1356
lhand -27.636 -0.920557
lfingers 7.12502
lthumb -1.03439 29.0567
rfemur -18.3411 13.0844 8.40822
rtibia 20.3164
rfoot -14.4177 -21.6852
rtoes -29.092
lfemur -27.0281 -2.21857 18.7426
ltibia 24.0213
lfoot -8.55184 12.0426
ltoes -37.7696
229
root 9.30934 14.2852 27.6553 81.9715 -76.4989 -64.0266
lowerback -12.0858 -0.597789 0.338024
upperback -6.1937 -1.11453 1.18993
thorax 0.320072 -0.663198 0.908151
lowerneck -23.7993 4.24349 5.26557
upperneck 18.5458 3.09361 3.4606
head 9.85579 2.21933 0.838201
rclavicle -6.96989e-015 4.77083e-014
rhumerus -35.1627 15.7678 -93.2701
rradius 32.5262
rwrist -2.47586
rhand -15.2349 -17.1278
rfingers 7.12502
rthumb 10.9382 -46.8229
lclavicle -6.96989e-015 4.77083e-014
lhumerus -32.7565 -22.0564 94.255
lradius 40.3567
lwrist 37.4366
lhand -27.3727 -1.20732
lfingers 7.12502
lthumb -0.780049 28.771
rfemur -18.4795 12.1681 9.16796
rtibia 20.7271
rfoot -14.4497 -21.2744
rtoes -29.4378
lfemur -28.3863 -1.72267 19.3818
ltibia 25.6178
lfoot -9.12863 11.3308
ltoes -37.6826
230
root 9.33197 14.2543 27.6641 80.4428 -75.7604 -62.45
lowerback -11.5888 -0.608863 0.677376
upperback -6.17577 -1.15042 1.2192
thorax 0.0656627 -0.68499 0.750721
lowerneck -24.0013 4.1641 5.2566
upperneck 18.0395 3.00978 3.39659
head 9.7097 2.16444 0.799792
rclavicle 5.60324e-015 -1.59028e-014
rhumerus -35.3399 17.1644 -93.8948
rradius 33.1842
rwrist -1.86315
rhand -14.5926 -16.3441
rfingers 7.12502
rthumb 11.5577 -46.0055
lclavicle 5.60324e-015 -1.59028e-014
lhumerus -32.7849 -22.6313 94.7731
lradius 40.8598
lwrist 36.7352
lhand -27.0702 -1.50084
lfingers 7.12502
lthumb -0.487889 28.4783
rfemur -18.6975 11.1102 9.89185
rtibia 21.2707
rfoot -14.4902 -20.8041
rtoes -29.8823
lfemur -29.779 -1.30233 19.9938
ltibia 27.1495
lfoot -9.67017 10.6377
ltoes -37.6421
231
root 9.35462 14.2213 27.6739 79.0222 -75.0462 -60.9868
lowerback -11.0867 -0.623028 0.982949
upperback -6.15163 -1.18265 1.22303
thorax -0.186236 -0.70508 0.587149
lowerneck -24.2136 4.07856 5.25829
upperneck 17.5513 2.90423 3.35985
head 9.57218 2.10319 0.766789
rclavicle -1.1281e-014 2.70347e-014
rhumerus -35.5125 18.4466 -94.471
rradius 33.8539
rwrist -1.25649
rhand -13.9376 -15.5344
rfingers 7.12502
rthumb 12.1893 -45.1592
lclavicle -1.1281e-014 2.70347e-014
lhumerus -32.825 -23.2357 95.2632
lradius 41.3529
lwrist 36.0537
lhand -26.7429 -1.80213
lfingers 7.12502
lthumb -0.17179 28.1775
rfemur -19.0088 9.9972 10.5797
rtibia 21.9754
rfoot -14.4909 -20.3503
rtoes -30.5967
lfemur -31.1318 -0.902326 20.5595
ltibia 28.6093
lfoot -10.1994 9.95193
ltoes -37.656
232
root 9.37662 14.1866 27.685 77.7334 -74.3823 -59.6501
lowerback -10.6 -0.643732 1.21443
upperback -6.11918 -1.21369 1.21263
thorax -0.421178 -0.723425 0.45093
lowerneck -24.4545 3.991 5.24912
upperneck 17.0944 2.78889 3.35104
head 9.45035 2.04012 0.745144
rclavicle -1.41137e-014 3.49861e-014
rhumerus -35.6623 19.6356 -94.9857
rradius 34.5221
rwrist -0.703014
rhand -13.282 -14.7577
rfingers 7.12502
rthumb 12.8213 -44.344
lclavicle -1.41137e-014 3.49861e-014
lhumerus -32.8916 -23.8995 95.7472
lradius 41.866
lwrist 35.4521
lhand -26.4016 -2.08606
lfingers 7.12502
lthumb 0.157865 27.8936
rfemur -19.436 8.85238 11.2014
rtibia 22.8544
rfoot -14.4833 -19.9057
rtoes -31.5039
lfemur -32.436 -0.505624 21.0524
ltibia 29.9932
lfoot -10.7191 9.27613
ltoes -37.7067
233
root 9.3974 14.1507 27.6971 76.5764 -73.7896 -58.4294
lowerback -10.1415 -0.659768 1.34303
upperback -6.08292 -1.22829 1.19493
thorax -0.635732 -0.731357 0.366509
lowerneck -24.7372 3.88409 5.17236
upperneck 16.6796 2.65584 3.38643
head 9.34887 1.97025 0.748581
rclavicle 2.24627e-014 2.38542e-014
rhumerus -35.7899 20.7249 -95.4111
rradius 35.1844
rwrist -0.247837
rhand -12.6485 -14.0695
rfingers 7.12502
rthumb 13.432 -43.6165
lclavicle 2.24627e-014 2.38542e-014
lhumerus -32.9787 -24.6144 96.2579
lradius 42.3865
lwrist 34.9143
lhand -26.0479 -2.3371
lfingers 7.12502
lthumb 0.499522 27.6421
rfemur -19.987 7.71429 11.7324
rtibia 23.9013
rfoot -14.4843 -19.4831
rtoes -32.5351
lfemur -33.6864 -0.101447 21.4531
ltibia 31.2942
lfoot -11.223 8.61434
ltoes -37.7597
234
root 9.41649 14.1141 27.7103 75.5089 -73.2866 -57.2802
lowerback -9.72018 -0.675618 1.34982
upperback -6.03949 -1.23273 1.16602
thorax -0.820829 -0.731171 0.339254
lowerneck -25.0657 3.76529 5.04039
upperneck 16.3084 2.51392 3.45545
head 9.26928 1.8976 0.7727
rclavicle -3.97569e-016 -1.11319e-014
rhumerus -35.8833 21.7289 -95.7559
rradius 35.8281
rwrist 0.0787672
rhand -12.0686 -13.5169
rfingers 7.12502
rthumb 13.9909 -43.026
lclavicle -3.97569e-016 -1.11319e-014
lhumerus -33.0826 -25.3759 96.7843
lradius 42.9188
lwrist 34.4435
lhand -25.6741 -2.53405
lfingers 7.12502
lthumb 0.860536 27.444
rfemur -20.6413 6.62102 12.1448
rtibia 25.0857
rfoot -14.5314 -19.0857
rtoes -33.5412
lfemur -34.8849 0.308301 21.7376
ltibia 32.5187
lfoot -11.7156 7.96857
ltoes -37.8158
235
root 9.43348 14.0773 27.7252 74.5204 -72.8889 -56.1979
lowerback -9.33614 -0.689994 1.22061
upperback -5.98607 -1.22591 1.12855
thorax -0.972904 -0.721547 0.379603
lowerneck -25.431 3.63604 4.84594
upperneck 15.9729 2.37258 3.54569
head 9.20724 1.82476 0.815305
rclavicle 2.75317e-014 3.18055e-015
rhumerus -35.9397 22.6575 -96.0153
rradius 36.4453
rwrist 0.270526
rhand -11.5419 -13.1375
rfingers 7.12502
rthumb 14.4984 -42.611
lclavicle 2.75317e-014 3.18055e-015
lhumerus -33.1578 -26.0857 97.3048
lradius 43.4202
lwrist 33.9568
lhand -25.2628 -2.68651
lfingers 7.12502
lthumb 1.25772 27.2895
rfemur -21.365 5.6087 12.4186
rtibia 26.3626
rfoot -14.6509 -18.7032
rtoes -34.4054
lfemur -36.0178 0.725423 21.889
ltibia 33.6703
lfoot -12.2025 7.33476
ltoes -37.841
236
root 9.44825 14.041 27.7414 73.5526 -72.5887 -55.1289
lowerback -8.99172 -0.704627 0.977371
upperback -5.91737 -1.21303 1.06455
thorax -1.08603 -0.705713 0.456033
lowerneck -25.8205 3.50438 4.63112
upperneck 15.659 2.23047 3.65225
head 9.1566 1.75288 0.867311
rclavicle 2.64384e-014 0
rhumerus -35.9553 23.503 -96.2219
rradius 37.0308
rwrist 0.328061
rhand -11.0694 -12.9317
rfingers 7.12502
rthumb 14.9536 -42.3718
lclavicle 2.64384e-014 0
lhumerus -33.2018 -26.7613 97.7898
lradius 43.8878
lwrist 33.4564
lhand -24.8256 -2.79956
lfingers 7.12502
lthumb 1.68003 27.1736
rfemur -22.114 4.68401 12.5579
rtibia 27.6788
rfoot -14.8425 -18.3374
rtoes -35.0778
lfemur -37.0911 1.1528 21.907
ltibia 34.7508
lfoot -12.6805 6.69526
ltoes -37.8244
237
root 9.46068 14.0058 27.7593 72.5648 -72.3848 -54.0494
lowerback -8.66707 -0.711413 0.626923
upperback -5.83354 -1.18427 0.97372
thorax -1.17161 -0.678952 0.565458
lowerneck -26.2117 3.35651 4.38356
upperneck 15.3515 2.07716 3.77081
head 9.10806 1.67546 0.926892
rclavicle 1.48095e-014 3.18055e-015
rhumerus -35.932 24.2313 -96.3501
rradius 37.5748
rwrist 0.29505
rhand -10.6195 -12.8695
rfingers 7.12502
rthumb 15.387 -42.2769
lclavicle 1.48095e-014 3.18055e-015
lhumerus -33.2496 -27.4658 98.2707
lradius 44.3534
lwrist 32.9864
lhand -24.3995 -2.87609
lfingers 7.12502
lthumb 2.09154 27.0934
rfemur -22.8347 3.84173 12.5645
rtibia 28.9803
rfoot -15.088 -17.9768
rtoes -35.5799
lfemur -38.0893 1.58122 21.7862
ltibia 35.7582
lfoot -13.1455 6.04314
ltoes -37.7596
238
root 9.47092 13.9726 27.7788 71.5051 -72.2638 -52.923
lowerback -8.3404 -0.709019 0.187942
upperback -5.73586 -1.13966 0.850778
thorax -1.24382 -0.642007 0.692261
lowerneck -26.5785 3.19022 4.10843
upperneck 15.0372 1.91058 3.90094
head 9.05303 1.59137 0.992092
rclavicle 1.78906e-015 4.77083e-015
rhumerus -35.8808 24.8229 -96.409
rradius 38.0764
rwrist 0.194359
rhand -10.1822 -12.8948
rfingers 7.12502
rthumb 15.8082 -42.2693
lclavicle 1.78906e-015 4.77083e-015
lhumerus -33.3197 -28.2185 98.7498
lradius 44.8243
lwrist 32.5527
lhand -23.9798 -2.90528
lfingers 7.12502
lthumb 2.49687 27.0598
rfemur -23.4756 3.08355 12.4446
rtibia 30.2166
rfoot -15.3749 -17.6113
rtoes -35.9114
lfemur -39.0087 2.00428 21.5324
ltibia 36.6914
lfoot -13.5922 5.36563
ltoes -37.6487
239
root 9.47899 13.9418 27.7999 70.3277 -72.2098 -51.7095
lowerback -7.99603 -0.703277 -0.330276
upperback -5.63078 -1.0888 0.698813
thorax -1.31852 -0.600143 0.833984
lowerneck -26.9017 3.00942 3.81187
upperneck 14.7149 1.73536 4.04224
head 8.98829 1.50299 1.06219
rclavicle 2.08724e-014 -9.54166e-015
rhumerus -35.8196 25.2892 -96.416
rradius 38.5366
rwrist 0.0336871
rhand -9.77418 -12.9755
rfingers 7.12502
rthumb 16.2011 -42.3185
lclavicle 2.08724e-014 -9.54166e-015
lhumerus -33.4409 -29.0301 99.2336
lradius 45.3179
lwrist 32.1748
lhand -23.6071 -2.90701
lfingers 7.12502
lthumb 2.85684 27.0536
rfemur -24.0017 2.40192 12.2128
rtibia 31.3425
rfoot -15.6313 -17.2768
rtoes -36.2542
lfemur -39.8525 2.41082 21.156
ltibia 37.5508
lfoot -14.0129 4.66244
ltoes -37.5246
240
root 9.48532 13.9134 27.8228 68.9707 -72.1964 -50.3467
lowerback -7.62491 -0.684802 -0.880518
upperback -5.52629 -1.02365 0.503628
thorax -1.41057 -0.550961 0.950175
lowerneck -27.1494 2.79453 3.47448
upperneck 14.3702 1.53116 4.21152
head 8.90391 1.40109 1.14235
rclavicle -3.27995e-014 3.49861e-014
rhumerus -35.763 25.5748 -96.3757
rradius 38.9599
rwrist -0.161819
rhand -9.41017 -13.0772
rfingers 7.12502
rthumb 16.5516 -42.3913
lclavicle -3.27995e-014 3.49861e-014
lhumerus -33.6337 -29.9346 99.7343
lradius 45.8332
lwrist 31.8413
lhand -23.2795 -2.88245
lfingers 7.12502
lthumb 3.17323 27.0737
rfemur -24.3826 1.78701 11.8783
rtibia 32.3202
rfoot -15.8533 -16.9711
rtoes -36.6278
lfemur -40.6426 2.79044 20.6733
ltibia 38.3398
lfoot -14.3996 3.92326
ltoes -37.3918
